<svg xmlns="http://www.w3.org/2000/svg" viewBox="0 0 287.54 354.4"><defs><style>.cls-1{fill:#fff;}</style></defs><title>Asset 1icon-basket</title><g id="Layer_2" data-name="Layer 2"><g id="Layer_1-2" data-name="Layer 1"><path class="cls-1" d="M224,30.4H157.29V0H66.71V30.4H0v48H224ZM90.71,24h42.59v6.4H90.71Zm0,0"/><path class="cls-1" d="M202.69,171.45l4.53-69.05H16.79L32,334.4h91.34a103.49,103.49,0,0,1,79.35-162.95Zm0,0"/><path class="cls-1" d="M208,195.31a79.54,79.54,0,1,0,79.54,79.54A79.63,79.63,0,0,0,208,195.31Zm43.34,105.91-17,17L208,291.83,181.63,318.2l-17-17L191,274.86l-26.37-26.37,17-17L208,257.89l26.37-26.37,17,17L225,274.86Zm0,0"/></g></g></svg>