<svg xmlns="http://www.w3.org/2000/svg" viewBox="0 0 45.97 62.2"><defs><style>.cls-1{fill:#fff;}</style></defs><title>Asset 1icon-paper</title><g id="Layer_2" data-name="Layer 2"><g id="Layer_1-2" data-name="Layer 1"><path class="cls-1" d="M35.12,0H3.81A3.82,3.82,0,0,0,0,3.81V58.39A3.82,3.82,0,0,0,3.81,62.2H42.16A3.82,3.82,0,0,0,46,58.39V11.79ZM36,5.71l4.76,5.17H36Zm6.75,52.68a.61.61,0,0,1-.61.61H3.81a.61.61,0,0,1-.61-.61V3.81a.61.61,0,0,1,.61-.61h29v9.28a1.6,1.6,0,0,0,1.61,1.6h8.35ZM8.86,17h27.2a1.2,1.2,0,0,1,0,2.4H8.86a1.2,1.2,0,1,1,0-2.4Zm28.4,9.27a1.2,1.2,0,0,1-1.2,1.2H8.86a1.2,1.2,0,1,1,0-2.4h27.2a1.2,1.2,0,0,1,1.2,1.2Zm0,7.8a1.2,1.2,0,0,1-1.2,1.2H8.86a1.2,1.2,0,1,1,0-2.4h27.2a1.2,1.2,0,0,1,1.2,1.2Zm0,7.93a1.2,1.2,0,0,1-1.2,1.2H8.86a1.2,1.2,0,1,1,0-2.4h27.2a1.2,1.2,0,0,1,1.2,1.2Zm0,0"/></g></g></svg>